<svg xmlns="http://www.w3.org/2000/svg" xmlns:svg="http://www.w3.org/2000/svg" xmlns:xlink="http://www.w3.org/1999/xlink" id="svg3049" width="128" height="128" version="1.1"><defs id="defs3051"><linearGradient id="linearGradient2915"><stop id="stop2907" offset="0" style="stop-color:#fff;stop-opacity:1"/><stop id="stop2909" offset=".346" style="stop-color:#fff;stop-opacity:.23529412"/><stop id="stop2911" offset="1" style="stop-color:#fff;stop-opacity:.15686275"/><stop id="stop2913" offset="1" style="stop-color:#fff;stop-opacity:.39215687"/></linearGradient><linearGradient id="linearGradient3924"><stop id="stop3926" offset="0" style="stop-color:#fff;stop-opacity:1"/><stop id="stop3928" offset=".063" style="stop-color:#fff;stop-opacity:.23529412"/><stop id="stop3930" offset=".951" style="stop-color:#fff;stop-opacity:.15686275"/><stop id="stop3932" offset="1" style="stop-color:#fff;stop-opacity:.39215687"/></linearGradient><linearGradient id="linearGradient3688-166-749-5"><stop id="stop2883-0" offset="0" style="stop-color:#181818;stop-opacity:1"/><stop id="stop2885-5" offset="1" style="stop-color:#181818;stop-opacity:0"/></linearGradient><linearGradient id="linearGradient3688-464-309-8"><stop id="stop2889-9" offset="0" style="stop-color:#181818;stop-opacity:1"/><stop id="stop2891-4" offset="1" style="stop-color:#181818;stop-opacity:0"/></linearGradient><linearGradient id="linearGradient3702-501-757-0"><stop id="stop2895-0" offset="0" style="stop-color:#181818;stop-opacity:0"/><stop id="stop2897-2" offset=".5" style="stop-color:#181818;stop-opacity:1"/><stop id="stop2899-6" offset="1" style="stop-color:#181818;stop-opacity:0"/></linearGradient><linearGradient id="linearGradient3811"><stop id="stop3813" offset="0" style="stop-color:#000;stop-opacity:1"/><stop id="stop3815" offset="1" style="stop-color:#000;stop-opacity:0"/></linearGradient><radialGradient id="radialGradient3946" cx="4.993" cy="43.5" r="2.5" fx="4.993" fy="43.5" gradientTransform="matrix(2.003784,0,0,1.4,27.98813,-17.4)" gradientUnits="userSpaceOnUse" xlink:href="#linearGradient3688-166-749-5"/><radialGradient id="radialGradient3948" cx="4.993" cy="43.5" r="2.5" fx="4.993" fy="43.5" gradientTransform="matrix(2.003784,0,0,1.4,-20.01187,-104.4)" gradientUnits="userSpaceOnUse" xlink:href="#linearGradient3688-464-309-8"/><linearGradient id="linearGradient3950" x1="25.058" x2="25.058" y1="47.028" y2="39.999" gradientUnits="userSpaceOnUse" xlink:href="#linearGradient3702-501-757-0"/><linearGradient id="linearGradient3965" x1="24" x2="24" y1="5" y2="43" gradientTransform="matrix(2.7297298,0,0,2.7297298,-1.5135175,1.488319)" gradientUnits="userSpaceOnUse" xlink:href="#linearGradient3924"/><radialGradient id="radialGradient3976" cx="-4.029" cy="93.468" r="35.338" fx="-4.029" fy="93.468" gradientTransform="matrix(1.5563924,0,0,0.16978827,70.270355,102.1321)" gradientUnits="userSpaceOnUse" xlink:href="#linearGradient3811"/><linearGradient id="linearGradient856-2-3" x1="49.093" x2="49.093" y1="36.903" y2="96.292" gradientTransform="matrix(1.3965646,0,0,1.3965646,-5.1680553,-6.5372613)" gradientUnits="userSpaceOnUse" xlink:href="#linearGradient3600-9-51"/><linearGradient id="linearGradient9328" x1="-51.786" x2="-51.786" y1="50.786" y2="2.906" gradientTransform="matrix(0.80749686,0,0,0.89471714,-213.62754,26.181163)" gradientUnits="userSpaceOnUse" xlink:href="#linearGradient3104-6"/><linearGradient id="linearGradient3104-6"><stop style="stop-color:#000;stop-opacity:.31782946" id="stop3106-3" offset="0"/><stop style="stop-color:#000;stop-opacity:.24031007" id="stop3108-9" offset="1"/></linearGradient><linearGradient id="linearGradient3600-9-51"><stop style="stop-color:#f4f4f4;stop-opacity:1" id="stop3602-0-0" offset="0"/><stop style="stop-color:#dbdbdb;stop-opacity:1" id="stop3604-9-04" offset="1"/></linearGradient><linearGradient id="linearGradient1193"><stop style="stop-color:#206b00;stop-opacity:1" id="stop1189" offset="0"/><stop style="stop-color:#206b00;stop-opacity:0" id="stop1191" offset="1"/></linearGradient><linearGradient id="linearGradient856-2-5" x1="23.528" x2="23.528" y1="6.083" y2="25.967" gradientTransform="matrix(2.6410256,0,0,2.6592593,0.61537507,0.87760436)" gradientUnits="userSpaceOnUse" xlink:href="#linearGradient1046"/><linearGradient id="linearGradient1046"><stop id="stop1042" offset="0" style="stop-color:#9bdb4d;stop-opacity:1"/><stop id="stop1044" offset="1" style="stop-color:#68b723;stop-opacity:1"/></linearGradient><linearGradient id="linearGradient1195" x1="24" x2="24" y1="15" y2="17" gradientTransform="matrix(2.6753246,0,0,2.4000001,0.46103353,9.1999994)" gradientUnits="userSpaceOnUse" xlink:href="#linearGradient1193"/><linearGradient id="linearGradient1489" x1="24" x2="24" y1="5.682" y2="15.207" gradientTransform="matrix(2.7297298,0,0,2.7297298,-1.5135175,1.488319)" gradientUnits="userSpaceOnUse" xlink:href="#linearGradient2915"/></defs><metadata id="metadata3054"/><path style="opacity:.2;color:#000;fill:url(#radialGradient3976);fill-opacity:1;fill-rule:nonzero;stroke:none;stroke-width:1;marker:none;visibility:visible;display:inline;overflow:visible;enable-background:accumulate" id="path3041" d="m 119,118.00181 a 55,6 0 0 1 -109.9999975,0 55,6 0 1 1 109.9999975,0 z"/><g style="display:inline" id="g2036" transform="matrix(2.6999989,0,0,0.55555607,-0.8000075,94.890689)"><g style="opacity:.4" id="g3712" transform="matrix(1.052632,0,0,1.285713,-1.263158,-13.42854)"><rect style="fill:url(#radialGradient3946);fill-opacity:1;stroke:none" id="rect2801" width="5" height="7" x="38" y="40"/><rect style="fill:url(#radialGradient3948);fill-opacity:1;stroke:none" id="rect3696" width="5" height="7" x="-10" y="-47" transform="scale(-1,-1)"/><rect style="fill:url(#linearGradient3950);fill-opacity:1;stroke:none" id="rect3700" width="28" height="7" x="10" y="40"/></g></g><path id="rect5505-21-3" d="m 13,44 v 64.5 c 0,5.263 4.237,9.5 9.5,9.5 h 83 c 5.263,0 9.5,-4.237 9.5,-9.5 V 44 Z" style="color:#000;font-variation-settings:normal;display:inline;overflow:visible;visibility:visible;opacity:1;vector-effect:none;fill:url(#linearGradient856-2-3);fill-opacity:1;fill-rule:nonzero;stroke:none;stroke-width:.999996;stroke-linecap:butt;stroke-linejoin:miter;stroke-miterlimit:4;stroke-dasharray:none;stroke-dashoffset:0;stroke-opacity:.5;marker:none;enable-background:accumulate;stop-color:#000;stop-opacity:1"/><path id="rect5505-21-3-5" d="m 12.5,45 v 63.50195 c 0,5.54 4.46,10 10,10 h 83 c 5.54,0 10,-4.46 10,-10 V 45" style="color:#000;font-variation-settings:normal;display:inline;overflow:visible;visibility:visible;opacity:1;vector-effect:none;fill:none;fill-opacity:1;fill-rule:nonzero;stroke:url(#linearGradient9328);stroke-width:.999922;stroke-linecap:butt;stroke-linejoin:round;stroke-miterlimit:4;stroke-dasharray:none;stroke-dashoffset:0;stroke-opacity:1;-inkscape-stroke:none;marker:none;enable-background:accumulate;stop-color:#000;stop-opacity:1"/><rect style="opacity:1;fill:none;stroke:url(#linearGradient3965);stroke-width:1;stroke-linecap:round;stroke-linejoin:round;stroke-miterlimit:4;stroke-dasharray:none;stroke-dashoffset:0;stroke-opacity:1" id="rect6741-7" width="101" height="101" x="13.5" y="16.502" rx="9" ry="9"/><rect style="color:#000;display:inline;overflow:visible;visibility:visible;opacity:.5;fill:none;stroke:none;stroke-width:1;stroke-linecap:round;stroke-linejoin:round;stroke-miterlimit:4;stroke-dasharray:none;stroke-dashoffset:0;stroke-opacity:1;marker:none;enable-background:accumulate" id="rect5505-21-3-1" width="103" height="103" x="12.5" y="15.502" rx="10" ry="10"/><path id="rect5505-21-3-56" d="m 22.5,15.501953 c -5.54,0 -10,4.46 -10,10 V 44.5 h 103 V 25.501953 c 0,-5.54 -4.46,-10 -10,-10 z" style="color:#000;font-variation-settings:normal;display:inline;overflow:visible;visibility:visible;opacity:1;vector-effect:none;fill:url(#linearGradient856-2-5);fill-opacity:1;fill-rule:nonzero;stroke:#206b00;stroke-width:.999999;stroke-linecap:butt;stroke-linejoin:miter;stroke-miterlimit:4;stroke-dasharray:none;stroke-dashoffset:0;stroke-opacity:.501961;-inkscape-stroke:none;marker:none;enable-background:accumulate;stop-color:#000;stop-opacity:1"/><path id="path4682-6" d="m 30.000001,31.501225 a 2.5000005,2.5000004 0 1 1 -5.000001,0 2.5000005,2.5000004 0 1 1 5.000001,0 z" style="color:#000;display:inline;overflow:visible;visibility:visible;opacity:.3;fill:#fff;fill-opacity:1;fill-rule:nonzero;stroke:none;stroke-width:2.5;marker:none;enable-background:accumulate"/><path id="path4682-6-1" d="m 30.000001,30.501225 a 2.5000005,2.5000004 0 1 1 -5.000001,0 2.5000005,2.5000004 0 1 1 5.000001,0 z" style="color:#000;display:inline;overflow:visible;visibility:visible;opacity:.4;fill:#126400;fill-opacity:1;fill-rule:nonzero;stroke:none;stroke-width:2.5;marker:none;enable-background:accumulate"/><path id="path4682-6-4" d="m 103,31.501225 a 2.5000003,2.5000002 0 1 1 -5,0 2.5000003,2.5000002 0 1 1 5,0 z" style="color:#000;display:inline;overflow:visible;visibility:visible;opacity:.3;fill:#fff;fill-opacity:1;fill-rule:nonzero;stroke:none;stroke-width:2.5;marker:none;enable-background:accumulate"/><path id="path4682-6-1-0" d="m 103,30.501225 a 2.5000003,2.5000002 0 1 1 -5,0 2.5000003,2.5000002 0 1 1 5,0 z" style="color:#000;display:inline;overflow:visible;visibility:visible;opacity:.4;fill:#126400;fill-opacity:1;fill-rule:nonzero;stroke:none;stroke-width:2.5;marker:none;enable-background:accumulate"/><rect style="font-variation-settings:normal;opacity:.15;vector-effect:none;fill:url(#linearGradient1195);fill-opacity:1;stroke:none;stroke-width:1;stroke-linecap:butt;stroke-linejoin:miter;stroke-miterlimit:4;stroke-dasharray:none;stroke-dashoffset:0;stroke-opacity:1;marker:none;stop-color:#000" id="rect1187" width="103" height="6" x="12.5" y="44" rx="0" ry="0"/><path id="rect6741-7-2" d="m 22.5,16.501953 c -4.986,0 -9,4.014 -9,9 V 43.5 h 101 V 25.501953 c 0,-4.986 -4.014,-9 -9,-9 z" style="opacity:.35;fill:none;stroke:url(#linearGradient1489);stroke-width:1;stroke-linecap:round;stroke-linejoin:round;stroke-miterlimit:4;stroke-dasharray:none;stroke-dashoffset:0;stroke-opacity:1"/><path id="rect3742" d="m 27.5,57.5 h 73 c 1.108,0 2,0.892 2,2 v 44 c 0,1.108 -0.892,2 -2,2 h -73 c -1.108,0 -2,-0.892 -2,-2 v -44 c 0,-1.108 0.892,-2 2,-2 z m 75,35.999999 H 25.500009 Z m 0,-12 H 25.500009 m 76.999991,-12 H 25.500009 M 40.552163,57.625032 40.447837,105.49814 M 55.51002,57.833418 55.48998,105.49814 m 14.99925,-47.831432 0.02154,47.831432 m 14.950335,-47.998141 0.07779,47.998141" style="opacity:.25;fill:none;stroke:#5e553c;stroke-width:.999999;marker:none;stop-color:#000;stop-opacity:1"/></svg>