<svg xmlns="http://www.w3.org/2000/svg" xmlns:svg="http://www.w3.org/2000/svg" xmlns:xlink="http://www.w3.org/1999/xlink" id="svg3138" width="16" height="16" version="1.1"><defs id="defs3140"><linearGradient id="linearGradient3924-4-9"><stop id="stop3926-0-1" offset="0" style="stop-color:#fff;stop-opacity:.5"/><stop id="stop3928-6-0" offset=".063" style="stop-color:#fff;stop-opacity:.16"/><stop id="stop3930-2-3" offset=".951" style="stop-color:#fff;stop-opacity:.15686275"/><stop id="stop3932-9-6" offset="1" style="stop-color:#fff;stop-opacity:.39215687"/></linearGradient><linearGradient id="linearGradient3510-9-7"><stop id="stop3512-9-6" offset="0" style="stop-color:#000;stop-opacity:1"/><stop id="stop3514-9-1" offset="1" style="stop-color:#000;stop-opacity:0"/></linearGradient><linearGradient id="linearGradient3055" x1="24" x2="24" y1="5" y2="43" gradientTransform="matrix(0.2972973,0,0,0.2972973,0.86486702,0.86486734)" gradientUnits="userSpaceOnUse" xlink:href="#linearGradient3924-4-9"/><linearGradient id="linearGradient3058" x1="23.954" x2="23.954" y1="15.999" y2="19.963" gradientTransform="matrix(0.35,0,0,0.25,-0.3999984,1.999998)" gradientUnits="userSpaceOnUse" xlink:href="#linearGradient3510-9-7"/><linearGradient id="linearGradient3161-6" x1="25.132" x2="25.132" y1="15.5" y2="48.396" gradientTransform="matrix(0.27756234,0,0,0.26614896,1.3046022,1.0991379)" gradientUnits="userSpaceOnUse" xlink:href="#linearGradient4658-0-7"/><linearGradient id="linearGradient4658-0-7"><stop id="stop4660-1-0" offset="0" style="stop-color:#fafafa;stop-opacity:1"/><stop id="stop4662-0-9" offset="1" style="stop-color:#e2e1de;stop-opacity:1"/></linearGradient><linearGradient id="linearGradient3151-0" x1="24.17" x2="24.17" y1="-12.242" y2="48.934" gradientTransform="matrix(0.23636363,0,0,0.23636363,0.436364,0.7258469)" gradientUnits="userSpaceOnUse" xlink:href="#linearGradient3242-7-3-8-0-4-58-06-2"/><linearGradient id="linearGradient3242-7-3-8-0-4-58-06-2"><stop id="stop3244-5-8-5-6-4-3-8-6" offset="0" style="stop-color:#cdf87e;stop-opacity:1"/><stop id="stop3246-9-5-1-5-3-0-7-2" offset=".262" style="stop-color:#a2e34f;stop-opacity:1"/><stop id="stop3248-7-2-0-7-5-35-9-6" offset=".661" style="stop-color:#68b723;stop-opacity:1"/><stop id="stop3250-8-2-8-5-6-40-4-8" offset="1" style="stop-color:#1d7e0d;stop-opacity:1"/></linearGradient></defs><metadata id="metadata3143"/><path id="rect933" d="M 1.4980469 6 L 1.4980469 12.501953 C 1.4980469 13.609953 2.3900469 14.501953 3.4980469 14.501953 L 12.501953 14.501953 C 13.609953 14.501953 14.501953 13.609953 14.501953 12.501953 L 14.501953 6 L 1.4980469 6 z" style="opacity:.3;fill:none;stroke:#000;stroke-width:1;stroke-opacity:1;stop-color:#000"/><path id="rect944" d="M 2 5.4882812 L 2 12.5 C 2 13.331 2.669 14 3.5 14 L 12.5 14 C 13.331 14 14 13.331 14 12.5 L 14 5.4882812 L 2 5.4882812 z" style="opacity:1;fill:url(#linearGradient3161-6);fill-opacity:1;stroke:none;stroke-width:1;stroke-opacity:1;stop-color:#000;font-variation-settings:normal;vector-effect:none;stroke-linecap:butt;stroke-linejoin:miter;stroke-miterlimit:4;stroke-dasharray:none;stroke-dashoffset:0;marker:none;stop-opacity:1"/><rect id="rect3508-1-7" width="14" height="1" x="1" y="6" rx="0" ry="0" style="opacity:.15;fill:url(#linearGradient3058);fill-opacity:1;fill-rule:nonzero;stroke:none;stroke-width:1;marker:none;visibility:visible;display:inline;overflow:visible;enable-background:accumulate"/><path id="rect5505-3-1" d="M 3.5 1.5 C 2.392 1.5 1.5 2.392 1.5 3.5 L 1.5 5.5 L 14.5 5.5 L 14.5 3.5 C 14.5 2.392 13.608 1.5 12.5 1.5 L 3.5 1.5 z" style="color:#000;fill:url(#linearGradient3151-0);fill-opacity:1;fill-rule:nonzero;stroke:none;stroke-width:.99999994;marker:none;visibility:visible;display:inline;overflow:visible;enable-background:accumulate"/><path id="rect5505-3-1-0" d="M 3.5 1.5 C 2.392 1.5 1.5 2.392 1.5 3.5 L 1.5 5.5 L 14.5 5.5 L 14.5 3.5 C 14.5 2.392 13.608 1.5 12.5 1.5 L 3.5 1.5 z" style="opacity:.4;color:#000;fill:none;stroke:#126400;stroke-width:1;stroke-linecap:round;stroke-linejoin:miter;stroke-miterlimit:4;stroke-opacity:1;stroke-dasharray:none;stroke-dashoffset:0;marker:none;visibility:visible;display:inline;overflow:visible;enable-background:accumulate"/><rect id="rect6741-0-3-9" width="11" height="11" x="2.5" y="2.5" rx="1" ry="1" style="fill:none;stroke:url(#linearGradient3055);stroke-width:1;stroke-linecap:round;stroke-linejoin:round;stroke-miterlimit:4;stroke-dasharray:none;stroke-dashoffset:0;stroke-opacity:1"/><path style="fill:none;stroke:#fff;stroke-width:1px;stroke-linecap:butt;stroke-linejoin:miter;stroke-opacity:1;opacity:.3" id="path977" d="M 3,4.5 H 13"/></svg>