<svg xmlns="http://www.w3.org/2000/svg" xmlns:svg="http://www.w3.org/2000/svg" xmlns:xlink="http://www.w3.org/1999/xlink" id="svg6649" width="48" height="48" version="1.1"><defs id="defs6651"><linearGradient id="linearGradient1193"><stop style="stop-color:#206b00;stop-opacity:1" id="stop1189" offset="0"/><stop style="stop-color:#206b00;stop-opacity:0" id="stop1191" offset="1"/></linearGradient><linearGradient id="linearGradient1153"><stop id="stop1145" offset="0" style="stop-color:#fff;stop-opacity:1"/><stop id="stop1147" offset=".25" style="stop-color:#fff;stop-opacity:.23529412"/><stop id="stop1149" offset="1" style="stop-color:#fff;stop-opacity:.15686275"/><stop id="stop1151" offset="1" style="stop-color:#fff;stop-opacity:.39215687"/></linearGradient><linearGradient id="linearGradient1201"><stop id="stop1193" offset="0" style="stop-color:#fff;stop-opacity:1"/><stop id="stop1195" offset=".068" style="stop-color:#fff;stop-opacity:.23529412"/><stop id="stop1197" offset=".947" style="stop-color:#fff;stop-opacity:.15686275"/><stop id="stop1199" offset="1" style="stop-color:#fff;stop-opacity:.39215687"/></linearGradient><linearGradient id="linearGradient3688-166-749"><stop id="stop2883" offset="0" style="stop-color:#181818;stop-opacity:1"/><stop id="stop2885" offset="1" style="stop-color:#181818;stop-opacity:0"/></linearGradient><linearGradient id="linearGradient3702-501-757"><stop id="stop2895" offset="0" style="stop-color:#181818;stop-opacity:0"/><stop id="stop2897" offset=".5" style="stop-color:#181818;stop-opacity:1"/><stop id="stop2899" offset="1" style="stop-color:#181818;stop-opacity:0"/></linearGradient><radialGradient id="radialGradient3013-6" cx="4.993" cy="43.5" r="2.5" fx="4.993" fy="43.5" gradientTransform="matrix(2.003784,0,0,0.89999994,29.98813,4.8500025)" gradientUnits="userSpaceOnUse" xlink:href="#linearGradient3688-166-749"/><radialGradient id="radialGradient3015-1" cx="4.993" cy="43.5" r="2.5" fx="4.993" fy="43.5" gradientTransform="matrix(2.003784,0,0,0.89999994,-18.01187,-83.149997)" gradientUnits="userSpaceOnUse" xlink:href="#linearGradient3688-166-749"/><linearGradient id="linearGradient3058-5" x1="39" x2="39" y1="6" y2="41.945" gradientTransform="translate(4e-6,1.0000062)" gradientUnits="userSpaceOnUse" xlink:href="#linearGradient1201"/><linearGradient id="linearGradient1191" x1="25.058" x2="25.058" y1="47.028" y2="39.999" gradientTransform="matrix(1.1428571,0,0,0.6428571,-3.428569,16.035716)" gradientUnits="userSpaceOnUse" xlink:href="#linearGradient3702-501-757"/><linearGradient id="linearGradient4046-7" x1="25.132" x2="25.132" y1="15.5" y2="48.396" gradientTransform="matrix(0.86867988,0,0,0.8548797,3.1516695,1.1665433)" gradientUnits="userSpaceOnUse" xlink:href="#linearGradient4658-9"/><linearGradient id="linearGradient4658-9"><stop id="stop4660-7" offset="0" style="stop-color:#fafafa;stop-opacity:1"/><stop id="stop4662-3" offset="1" style="stop-color:#e2e1de;stop-opacity:1"/></linearGradient><linearGradient id="linearGradient856-2-5" x1="23.528" x2="23.528" y1="6.083" y2="25.967" gradientUnits="userSpaceOnUse" xlink:href="#linearGradient1046"/><linearGradient id="linearGradient1046"><stop id="stop1042" offset="0" style="stop-color:#9bdb4d;stop-opacity:1"/><stop id="stop1044" offset="1" style="stop-color:#68b723;stop-opacity:1"/></linearGradient><linearGradient id="linearGradient3058-5-1" x1="39" x2="39" y1="6" y2="14" gradientTransform="translate(4e-6,1.000006)" gradientUnits="userSpaceOnUse" xlink:href="#linearGradient1153"/><linearGradient id="linearGradient1195" x1="24" x2="24" y1="15" y2="17" gradientTransform="matrix(1.012987,0,0,1,-0.05844156,2)" gradientUnits="userSpaceOnUse" xlink:href="#linearGradient1193"/></defs><metadata id="metadata6654"/><rect style="opacity:.35;fill:url(#radialGradient3013-6);fill-opacity:1;stroke:none;stroke-width:.862764" id="rect2801-3-7" width="5" height="4.5" x="40" y="41.75"/><rect style="opacity:.35;fill:url(#radialGradient3015-1);fill-opacity:1;stroke:none;stroke-width:.862764" id="rect3696-6-3" width="5" height="4.5" x="-8" y="-46.25" transform="scale(-1)"/><rect style="opacity:.35;fill:url(#linearGradient1191);fill-opacity:1;stroke:none;stroke-width:.862764" id="rect3700-4-6" width="32" height="4.5" x="8" y="41.75"/><rect style="color:#000;font-variation-settings:normal;display:inline;overflow:visible;visibility:visible;opacity:1;vector-effect:none;fill:url(#linearGradient4046-7);fill-opacity:1;fill-rule:nonzero;stroke:none;stroke-width:.999998;stroke-linecap:butt;stroke-linejoin:miter;stroke-miterlimit:4;stroke-dasharray:none;stroke-dashoffset:0;stroke-opacity:1;marker:none;enable-background:accumulate;stop-color:#000;stop-opacity:1" id="rect5505-21-1" width="38" height="39" x="5" y="5" rx="3.5" ry="3.5"/><rect style="opacity:1;fill:none;stroke:url(#linearGradient3058-5);stroke-width:1;stroke-linecap:round;stroke-linejoin:round;stroke-miterlimit:4;stroke-dasharray:none;stroke-dashoffset:0;stroke-opacity:1" id="rect6741-2" width="37" height="37" x="5.5" y="6.5" rx="3" ry="3"/><path id="rect5505-21-1-8" d="m 4.5,17 v 23.5 c 0,2.216 1.784,4 4,4 h 31 c 2.216,0 4,-1.784 4,-4 V 17" style="color:#000;font-variation-settings:normal;display:inline;overflow:visible;visibility:visible;opacity:.3;vector-effect:none;fill:none;fill-opacity:1;fill-rule:nonzero;stroke:#000;stroke-width:1;stroke-linecap:butt;stroke-linejoin:miter;stroke-miterlimit:4;stroke-dasharray:none;stroke-dashoffset:0;stroke-opacity:1;marker:none;enable-background:accumulate;stop-color:#000;stop-opacity:1"/><rect style="font-variation-settings:normal;opacity:.15;vector-effect:none;fill:url(#linearGradient1195);fill-opacity:1;stroke:none;stroke-width:1;stroke-linecap:butt;stroke-linejoin:miter;stroke-miterlimit:4;stroke-dasharray:none;stroke-dashoffset:0;stroke-opacity:1;marker:none;stop-color:#000;stop-opacity:1" id="rect1187" width="39" height="2.5" x="4.5" y="16.5" rx="0" ry="0"/><path id="rect5505-21-1-9" d="m 8.5,5.5 c -2.216,0 -4,1.784 -4,4 v 7 h 39 v -7 c 0,-2.216 -1.784,-4 -4,-4 z" style="color:#000;display:inline;overflow:visible;visibility:visible;opacity:1;fill:url(#linearGradient856-2-5);fill-opacity:1;fill-rule:nonzero;stroke:#206b00;stroke-width:1;stroke-opacity:.501961;marker:none;enable-background:accumulate"/><path id="rect6741-2-3" d="m 8.5,6.5 c -1.662,0 -3,1.338 -3,3 v 6 h 37 v -6 c 0,-1.662 -1.338,-3 -3,-3 z" style="opacity:.35;fill:none;stroke:url(#linearGradient3058-5-1);stroke-width:1;stroke-linecap:round;stroke-linejoin:round;stroke-miterlimit:4;stroke-dasharray:none;stroke-dashoffset:0;stroke-opacity:1"/><path id="path4682-6-3" d="M 39.000001,12 A 1.0000005,1.0000005 0 1 1 37,12 a 1.0000005,1.0000005 0 1 1 2.000001,0 z" style="color:#000;display:inline;overflow:visible;visibility:visible;opacity:.3;fill:#fff;fill-opacity:1;fill-rule:nonzero;stroke:none;stroke-width:1;marker:none;enable-background:accumulate"/><path id="path4682-6-1-5" d="m 39.000001,11.000001 a 1.0000005,1.0000005 0 1 1 -2.000001,0 1.0000005,1.0000005 0 1 1 2.000001,0 z" style="color:#000;display:inline;overflow:visible;visibility:visible;opacity:.4;fill:#126400;fill-opacity:1;fill-rule:nonzero;stroke:none;stroke-width:1;marker:none;enable-background:accumulate"/><path id="path4682-6-3-8" d="M 11.000001,12 A 1.0000005,1.0000005 0 1 1 9,12 a 1.0000005,1.0000005 0 1 1 2.000001,0 z" style="color:#000;display:inline;overflow:visible;visibility:visible;opacity:.3;fill:#fff;fill-opacity:1;fill-rule:nonzero;stroke:none;stroke-width:1;marker:none;enable-background:accumulate"/><path id="path4682-6-1-5-0" d="m 11.000001,11.000001 a 1.0000005,1.0000005 0 1 1 -2.000001,0 1.0000005,1.0000005 0 1 1 2.000001,0 z" style="color:#000;display:inline;overflow:visible;visibility:visible;opacity:.4;fill:#126400;fill-opacity:1;fill-rule:nonzero;stroke:none;stroke-width:1;marker:none;enable-background:accumulate"/><path id="rect1061" d="m 10,22.5 h 28 c 0.277,0 0.5,0.223 0.5,0.5 v 15 c 0,0.277 -0.223,0.5 -0.5,0.5 H 10 C 9.723,38.5 9.5,38.277 9.5,38 V 23 c 0,-0.277 0.223,-0.5 0.5,-0.5 z M 38.51068,34.499996 H 9.500004 Z m 0,-4 H 9.500008 m 29.010676,-4 H 9.500008 m 6.019641,-3.950499 -0.03929,15.950502 m 5.023445,-15.868011 -0.0076,15.868011 m 5.99975,-15.934005 0.0081,15.934005 m 5.9813,-15.999995 0.0293,15.999995" style="opacity:.25;vector-effect:none;fill:none;stroke:#5e553c;stop-color:#000;stop-opacity:1"/></svg>