<svg xmlns="http://www.w3.org/2000/svg" xmlns:svg="http://www.w3.org/2000/svg" xmlns:xlink="http://www.w3.org/1999/xlink" id="svg6333" width="64" height="64" version="1.1"><defs id="defs6335"><linearGradient id="linearGradient2670"><stop id="stop2662" offset="0" style="stop-color:#fff;stop-opacity:1"/><stop id="stop2664" offset=".333" style="stop-color:#fff;stop-opacity:.23529412"/><stop id="stop2666" offset="1" style="stop-color:#fff;stop-opacity:.15686275"/><stop id="stop2668" offset="1" style="stop-color:#fff;stop-opacity:.39215687"/></linearGradient><linearGradient id="linearGradient3381-5-4" x1="24" x2="24" y1="5.898" y2="14.253" gradientTransform="matrix(1.4324324,0,0,1.4362832,-2.378381,-2.4707782)" gradientUnits="userSpaceOnUse" xlink:href="#linearGradient2670"/><linearGradient id="linearGradient3924-2-2-5-8"><stop id="stop3926-9-4-9-6" offset="0" style="stop-color:#fff;stop-opacity:1"/><stop id="stop3928-9-8-6-5" offset=".063" style="stop-color:#fff;stop-opacity:.23529412"/><stop id="stop3930-3-5-1-7" offset=".951" style="stop-color:#fff;stop-opacity:.15686275"/><stop id="stop3932-8-0-4-8" offset="1" style="stop-color:#fff;stop-opacity:.39215687"/></linearGradient><linearGradient id="linearGradient3688-166-749-4-0-3-8"><stop id="stop2883-4-0-1-8" offset="0" style="stop-color:#181818;stop-opacity:1"/><stop id="stop2885-9-2-9-6" offset="1" style="stop-color:#181818;stop-opacity:0"/></linearGradient><linearGradient id="linearGradient3702-501-757-8-4-1-1"><stop id="stop2895-8-9-9-1" offset="0" style="stop-color:#181818;stop-opacity:0"/><stop id="stop2897-7-8-7-7" offset=".5" style="stop-color:#181818;stop-opacity:1"/><stop id="stop2899-4-5-1-5" offset="1" style="stop-color:#181818;stop-opacity:0"/></linearGradient><linearGradient id="linearGradient6394" x1="25.058" x2="25.058" y1="47.028" y2="39.999" gradientTransform="matrix(1.5714286,0,0,0.7142857,-5.7142853,27.928572)" gradientUnits="userSpaceOnUse" xlink:href="#linearGradient3702-501-757-8-4-1-1"/><radialGradient id="radialGradient3337-2-2-3" cx="4.993" cy="43.5" r="2.5" fx="4.993" fy="43.5" gradientTransform="matrix(2.4045407,0,0,0.99999998,41.985755,15.500001)" gradientUnits="userSpaceOnUse" xlink:href="#linearGradient3688-166-749-4-0-3-8"/><radialGradient id="radialGradient3339-1-4-5" cx="4.993" cy="43.5" r="2.5" fx="4.993" fy="43.5" gradientTransform="matrix(2.4045407,0,0,0.99999998,-22.014244,-102.5)" gradientUnits="userSpaceOnUse" xlink:href="#linearGradient3688-166-749-4-0-3-8"/><linearGradient id="linearGradient856-2-3-1" x1="23.528" x2="23.528" y1="15.913" y2="48.148" gradientTransform="matrix(1.3846154,0,0,1.3846154,-1.2307884,-2.6153811)" gradientUnits="userSpaceOnUse" xlink:href="#linearGradient3600-9-51"/><linearGradient id="linearGradient3600-9-51"><stop style="stop-color:#f4f4f4;stop-opacity:1" id="stop3602-0-0" offset="0"/><stop style="stop-color:#dbdbdb;stop-opacity:1" id="stop3604-9-04" offset="1"/></linearGradient><linearGradient id="linearGradient9328" x1="169.214" x2="169.214" y1="73.82" y2="25.94" gradientTransform="matrix(0.80749686,0,0,0.89471714,-105.25023,-6.4826825)" gradientUnits="userSpaceOnUse" xlink:href="#linearGradient3104-6"/><linearGradient id="linearGradient3104-6"><stop style="stop-color:#000;stop-opacity:.31782946" id="stop3106-3" offset="0"/><stop style="stop-color:#000;stop-opacity:.24031007" id="stop3108-9" offset="1"/></linearGradient><linearGradient id="linearGradient3381-5-4-2" x1="24" x2="24" y1="5" y2="43" gradientTransform="matrix(1.4324324,0,0,1.4324324,-2.378381,-2.3783728)" gradientUnits="userSpaceOnUse" xlink:href="#linearGradient3924-2-2-5-8"/><linearGradient id="linearGradient1193"><stop style="stop-color:#206b00;stop-opacity:1" id="stop1189" offset="0"/><stop style="stop-color:#206b00;stop-opacity:0" id="stop1191" offset="1"/></linearGradient><linearGradient id="linearGradient1046"><stop id="stop1042" offset="0" style="stop-color:#9bdb4d;stop-opacity:1"/><stop id="stop1044" offset="1" style="stop-color:#68b723;stop-opacity:1"/></linearGradient><linearGradient id="linearGradient1195" x1="24" x2="24" y1="15" y2="17" gradientTransform="matrix(1.4545454,0,0,1.2,-2.5454542,2.6000005)" gradientUnits="userSpaceOnUse" xlink:href="#linearGradient1193"/><linearGradient id="linearGradient2136" x1="-19.253" x2="-19.253" y1="5.853" y2="25.737" gradientTransform="matrix(1.4102977,0,0,1.4148566,60.152852,-3.2809037)" gradientUnits="userSpaceOnUse" xlink:href="#linearGradient1046"/></defs><metadata id="metadata6338"/><rect style="opacity:.35;fill:url(#radialGradient3337-2-2-3);fill-opacity:1;stroke:none;stroke-width:1.06199" id="rect2801-5-5-7-9" width="6" height="5" x="54" y="56.5"/><rect style="opacity:.35;fill:url(#radialGradient3339-1-4-5);fill-opacity:1;stroke:none;stroke-width:1.06199" id="rect3696-3-0-3-7" width="6" height="5" x="-10" y="-61.5" transform="scale(-1)"/><rect style="opacity:.35;fill:url(#linearGradient6394);fill-opacity:1;stroke:none;stroke-width:1.06199" id="rect3700-5-6-8-4" width="44" height="5" x="10" y="56.5"/><path id="rect5505-21-1-5-6" d="m 5,18 v 35.5 c 0,3.047 2.453,5.5 5.5,5.5 h 43 C 56.547,59 59,56.547 59,53.5 V 18 Z" style="color:#000;display:inline;overflow:visible;visibility:visible;fill:url(#linearGradient856-2-3-1);fill-opacity:1;fill-rule:nonzero;stroke:none;stroke-width:1;stroke-opacity:.5;marker:none;enable-background:accumulate"/><path id="rect5505-21-1-5-53" d="m 4.5,20 v 33.5 c 0,3.324 2.676,6 6,6 h 43 c 3.324,0 6,-2.676 6,-6 V 20" style="color:#000;font-variation-settings:normal;display:inline;overflow:visible;visibility:visible;vector-effect:none;fill:none;fill-opacity:1;fill-rule:nonzero;stroke:url(#linearGradient9328);stroke-width:.999922;stroke-linecap:butt;stroke-linejoin:round;stroke-miterlimit:4;stroke-dasharray:none;stroke-dashoffset:0;stroke-opacity:1;-inkscape-stroke:none;marker:none;enable-background:accumulate;stop-color:#000"/><rect style="fill:none;stroke:url(#linearGradient3381-5-4-2);stroke-width:.999997;stroke-linecap:round;stroke-linejoin:round;stroke-miterlimit:4;stroke-dasharray:none;stroke-dashoffset:0;stroke-opacity:1" id="rect6741-5-0-2-3-0" width="53" height="53" x="5.5" y="5.5" rx="5" ry="5"/><path id="rect1061" d="m 12.207188,25.500222 h 39.586206 c 0.391621,0 0.706897,0.362375 0.706897,0.8125 v 26.375 c 0,0.450125 -0.315276,0.8125 -0.706897,0.8125 H 12.207188 c -0.391621,0 -0.706897,-0.362375 -0.706897,-0.8125 v -26.375 c 0,-0.450125 0.315276,-0.8125 0.706897,-0.8125 z M 52.5,46.500408 h -41 z M 52.5,39.5 h -41 m 41,-6.999592 h -41 m 8.027775,-6.938463 -0.05555,27.438057 M 27.510671,25.68138 27.5,53.000002 m 7.994267,-27.414171 0.01147,27.414171 M 43.458576,25.490284 43.5,53.000002" style="opacity:.25;vector-effect:none;fill:none;stroke:#5e553c;stroke-width:1;stop-color:#000"/><rect style="font-variation-settings:normal;opacity:.15;vector-effect:none;fill:url(#linearGradient1195);fill-opacity:1;stroke:none;stroke-width:1;stroke-linecap:butt;stroke-linejoin:miter;stroke-miterlimit:4;stroke-dasharray:none;stroke-dashoffset:0;stroke-opacity:1;marker:none;stop-color:#000" id="rect1187" width="56" height="3" x="4" y="20" rx="0" ry="0"/><path id="rect5505-21-1-5" d="m 10.5,4.5 c -3.324,0 -6,2.676 -6,6 v 9 h 55 v -9 c 0,-3.324 -2.676,-6 -6,-6 z" style="color:#000;font-variation-settings:normal;display:inline;overflow:visible;visibility:visible;opacity:1;vector-effect:none;fill:url(#linearGradient2136);fill-opacity:1;fill-rule:nonzero;stroke:#206b00;stroke-width:1;stroke-linecap:butt;stroke-linejoin:miter;stroke-miterlimit:4;stroke-dasharray:none;stroke-dashoffset:0;stroke-opacity:.501961;-inkscape-stroke:none;marker:none;enable-background:accumulate;stop-color:#000;stop-opacity:1"/><path id="rect6741-5-0-2-3" d="m 10.5,5.4296875 c -2.77,0 -5,2.23 -5,5.0000005 V 18.5 h 53 v -8.070312 c 0,-2.7700005 -2.23,-5.0000005 -5,-5.0000005 z" style="opacity:.35;fill:none;stroke:url(#linearGradient3381-5-4);stroke-width:1;stroke-linecap:round;stroke-linejoin:round;stroke-miterlimit:4;stroke-dasharray:none;stroke-dashoffset:0;stroke-opacity:1"/><path id="path4682-6" d="M 12.388672 11.503906 A 1.5000001 1.5000001 0 0 0 11 13 A 1.5000001 1.5000001 0 1 0 14 13 A 1.5000001 1.5000001 0 0 0 12.388672 11.503906 z M 50.888672 11.503906 A 1.5000001 1.5000001 0 0 0 49.5 13 A 1.5000001 1.5000001 0 1 0 52.5 13 A 1.5000001 1.5000001 0 0 0 50.888672 11.503906 z" style="color:#000;display:inline;overflow:visible;visibility:visible;opacity:.3;fill:#fff;fill-opacity:1;fill-rule:nonzero;stroke:none;stroke-width:1.5;marker:none;enable-background:accumulate"/><path id="path4682-6-1" d="M 12.388672 10.503906 A 1.5000001 1.5000001 0 0 0 11 12 A 1.5000001 1.5000001 0 1 0 14 12 A 1.5000001 1.5000001 0 0 0 12.388672 10.503906 z M 50.888672 10.503906 A 1.5000001 1.5000001 0 0 0 49.5 12 A 1.5000001 1.5000001 0 1 0 52.5 12 A 1.5000001 1.5000001 0 0 0 50.888672 10.503906 z" style="color:#000;display:inline;overflow:visible;visibility:visible;opacity:.4;fill:#126400;fill-opacity:1;fill-rule:nonzero;stroke:none;stroke-width:1.5;marker:none;enable-background:accumulate;font-variation-settings:normal;vector-effect:none;stroke-linecap:butt;stroke-linejoin:miter;stroke-miterlimit:4;stroke-dasharray:none;stroke-dashoffset:0;stroke-opacity:1;-inkscape-stroke:none;stop-color:#000;stop-opacity:1"/></svg>